<svg width="25" height="24" viewBox="0 0 25 24" fill="none" xmlns="http://www.w3.org/2000/svg">
<path d="M5.23359 21L5.08359 19.725L4.88359 19.625C4.81693 19.5917 4.72526 19.5333 4.60859 19.45L3.40859 19.95L2.30859 18.05L3.33359 17.275V16.75L2.30859 15.95L3.40859 14.05L4.60859 14.55C4.69193 14.5 4.77109 14.45 4.84609 14.4C4.92109 14.35 5.00026 14.3083 5.08359 14.275L5.23359 13H7.43359L7.58359 14.275L7.68359 14.325L7.78359 14.375C7.81693 14.3917 7.85859 14.4167 7.90859 14.45L8.05859 14.55L9.25859 14.05L10.3586 15.95L9.33359 16.725V17.275L14.8086 14.1L13.6836 16.075L13.9836 16.3L10.0336 18.6L9.25859 19.95L8.05859 19.45C7.97526 19.5 7.89609 19.55 7.82109 19.6C7.74609 19.65 7.66693 19.6917 7.58359 19.725L7.43359 21H5.23359ZM6.33359 15.5C5.91693 15.5 5.56276 15.6458 5.27109 15.9375C4.97943 16.2292 4.83359 16.5833 4.83359 17C4.83359 17.4167 4.97943 17.7708 5.27109 18.0625C5.56276 18.3542 5.91693 18.5 6.33359 18.5C6.75026 18.5 7.10443 18.3542 7.39609 18.0625C7.68776 17.7708 7.83359 17.4167 7.83359 17C7.83359 16.5833 7.68776 16.2292 7.39609 15.9375C7.10443 15.6458 6.75026 15.5 6.33359 15.5ZM10.2336 10L10.0836 8.725C10.0503 8.69167 10.0086 8.66667 9.95859 8.65C9.90859 8.63333 9.86693 8.60833 9.83359 8.575V14.075L9.45859 13.425L8.33359 13.9V8.8L7.33359 7.05L8.33359 6.275V5.75L7.30859 4.95L8.40859 3.05L9.60859 3.55C9.69193 3.5 9.77109 3.45 9.84609 3.4C9.92109 3.35 10.0003 3.30833 10.0836 3.275L10.2336 2H12.4336L12.5836 3.275L12.7836 3.375C12.8503 3.40833 12.9419 3.46667 13.0586 3.55L14.2586 3.05L15.3586 4.95L14.3336 5.725V6.25L15.3586 7.05L14.2586 8.95L13.0586 8.45C12.9753 8.5 12.8961 8.55 12.8211 8.6C12.7461 8.65 12.6669 8.69167 12.5836 8.725L12.4336 10H10.2336ZM11.3336 4.5C10.9169 4.5 10.5628 4.64583 10.2711 4.9375C9.97943 5.22917 9.83359 5.58333 9.83359 6C9.83359 6.41667 9.97943 6.77083 10.2711 7.0625C10.5628 7.35417 10.9169 7.5 11.3336 7.5C11.7503 7.5 12.1044 7.35417 12.3961 7.0625C12.6878 6.77083 12.8336 6.41667 12.8336 6C12.8336 5.58333 12.6878 5.22917 12.3961 4.9375C12.1044 4.64583 11.7503 4.5 11.3336 4.5ZM17.2336 21L17.0836 19.725L16.8836 19.625C16.8169 19.5917 16.7253 19.5333 16.6086 19.45L15.4086 19.95L14.3086 18.05L15.3336 17.275V16.75L14.3086 15.975L15.4086 14.05L16.6086 14.55C16.6586 14.5167 16.6919 14.4958 16.7086 14.4875L17.0836 14.3L11.6836 10.5H12.8836L12.9836 9.6L17.8586 13H19.4336L19.5836 14.275L19.6836 14.325L19.7836 14.375C19.8169 14.3917 19.8586 14.4167 19.9086 14.45L20.0586 14.55L21.2586 14.05L22.3586 15.95L21.3336 16.725V17.25L22.3586 18.05L21.2586 19.95L20.0586 19.45C19.9753 19.5 19.8961 19.55 19.8211 19.6C19.7461 19.65 19.6669 19.6917 19.5836 19.725L19.4336 21H17.2336ZM18.3336 15.5C17.9169 15.5 17.5628 15.6458 17.2711 15.9375C16.9794 16.2292 16.8336 16.5833 16.8336 17C16.8336 17.4167 16.9794 17.7708 17.2711 18.0625C17.5628 18.3542 17.9169 18.5 18.3336 18.5C18.7503 18.5 19.1044 18.3542 19.3961 18.0625C19.6878 17.7708 19.8336 17.4167 19.8336 17C19.8336 16.5833 19.6878 16.2292 19.3961 15.9375C19.1044 15.6458 18.7503 15.5 18.3336 15.5Z" fill="#C2285A"/>
</svg>
