<svg width="25" height="24" viewBox="0 0 25 24" fill="none" xmlns="http://www.w3.org/2000/svg">
<path d="M12.333 22C10.9663 22 9.67467 21.7375 8.45801 21.2125C7.24134 20.6875 6.17884 19.9708 5.27051 19.0625C4.36217 18.1542 3.64551 17.0917 3.12051 15.875C2.59551 14.6583 2.33301 13.3667 2.33301 12C2.33301 10.6167 2.59551 9.32083 3.12051 8.1125C3.64551 6.90417 4.36217 5.84583 5.27051 4.9375C6.17884 4.02917 7.24134 3.3125 8.45801 2.7875C9.67467 2.2625 10.9663 2 12.333 2C13.7163 2 15.0122 2.2625 16.2205 2.7875C17.4288 3.3125 18.4872 4.02917 19.3955 4.9375C20.3038 5.84583 21.0205 6.90417 21.5455 8.1125C22.0705 9.32083 22.333 10.6167 22.333 12C22.333 13.3667 22.0705 14.6583 21.5455 15.875C21.0205 17.0917 20.3038 18.1542 19.3955 19.0625C18.4872 19.9708 17.4288 20.6875 16.2205 21.2125C15.0122 21.7375 13.7163 22 12.333 22ZM7.33301 11C7.61634 11 7.85384 10.9042 8.04551 10.7125C8.23717 10.5208 8.33301 10.2833 8.33301 10C8.33301 9.71667 8.23717 9.47917 8.04551 9.2875C7.85384 9.09583 7.61634 9 7.33301 9C7.04967 9 6.81217 9.09583 6.62051 9.2875C6.42884 9.47917 6.33301 9.71667 6.33301 10C6.33301 10.2833 6.42884 10.5208 6.62051 10.7125C6.81217 10.9042 7.04967 11 7.33301 11ZM10.333 8C10.6163 8 10.8538 7.90417 11.0455 7.7125C11.2372 7.52083 11.333 7.28333 11.333 7C11.333 6.71667 11.2372 6.47917 11.0455 6.2875C10.8538 6.09583 10.6163 6 10.333 6C10.0497 6 9.81217 6.09583 9.62051 6.2875C9.42884 6.47917 9.33301 6.71667 9.33301 7C9.33301 7.28333 9.42884 7.52083 9.62051 7.7125C9.81217 7.90417 10.0497 8 10.333 8ZM17.333 11C17.6163 11 17.8538 10.9042 18.0455 10.7125C18.2372 10.5208 18.333 10.2833 18.333 10C18.333 9.71667 18.2372 9.47917 18.0455 9.2875C17.8538 9.09583 17.6163 9 17.333 9C17.0497 9 16.8122 9.09583 16.6205 9.2875C16.4288 9.47917 16.333 9.71667 16.333 10C16.333 10.2833 16.4288 10.5208 16.6205 10.7125C16.8122 10.9042 17.0497 11 17.333 11ZM12.333 14C12.883 14 13.3538 13.8042 13.7455 13.4125C14.1372 13.0208 14.333 12.55 14.333 12C14.333 11.7833 14.2997 11.5708 14.233 11.3625C14.1663 11.1542 14.0663 10.9667 13.933 10.8L15.283 7.4C15.3997 7.13333 15.4038 6.87083 15.2955 6.6125C15.1872 6.35417 14.9997 6.16667 14.733 6.05C14.483 5.93333 14.2288 5.92917 13.9705 6.0375C13.7122 6.14583 13.533 6.33333 13.433 6.6L12.083 10C11.583 10.0833 11.1663 10.3125 10.833 10.6875C10.4997 11.0625 10.333 11.5 10.333 12C10.333 12.55 10.5288 13.0208 10.9205 13.4125C11.3122 13.8042 11.783 14 12.333 14ZM8.48301 19C9.06634 18.6667 9.68301 18.4167 10.333 18.25C10.983 18.0833 11.6497 18 12.333 18C13.0163 18 13.683 18.0833 14.333 18.25C14.983 18.4167 15.5997 18.6667 16.183 19L17.933 17.7C17.0997 17.15 16.208 16.7292 15.258 16.4375C14.308 16.1458 13.333 16 12.333 16C11.333 16 10.358 16.1458 9.40801 16.4375C8.45801 16.7292 7.56634 17.15 6.73301 17.7L8.48301 19Z" fill="#B468B9"/>
</svg>
